<svg width="1136" height="758" xmlns="http://www.w3.org/2000/svg" xmlns:xlink="http://www.w3.org/1999/xlink" overflow="hidden"><defs><clipPath id="clip0"><rect x="-1" y="-1" width="1136" height="758"></rect></clipPath></defs><g clip-path="url(#clip0)" transform="translate(1 1)"><path d="M0 0 1134 0 1134 756 0 756Z" fill="#FFFFFF" fill-rule="evenodd"></path><path d="M186.92 238.165 291.735 80.9424M226.225 264.369 331.041 107.146M265.531 290.573 370.346 133.35" stroke="#000000" stroke-width="31.4722" stroke-miterlimit="8" fill-rule="evenodd"></path><path d="M763.408 622.486 868.223 465.263M802.713 648.69 907.529 491.467M842.019 674.894 946.834 517.671" stroke="#000000" stroke-width="31.4722" stroke-miterlimit="8" fill-rule="evenodd"></path><path d="M793.114 532.954 924.133 620.3" stroke="#FFFFFF" stroke-width="15.7361" stroke-miterlimit="8" fill="none" fill-rule="evenodd"></path><path d="M671.69 220.694C758.522 278.582 781.986 395.9 724.098 482.732 666.21 569.564 548.892 593.028 462.06 535.14 375.228 477.252 351.764 359.933 409.652 273.102 467.54 186.27 584.859 162.806 671.69 220.694Z" fill="#DA251D" fill-rule="evenodd"></path><path d="M409.653 273.102C380.709 316.517 392.44 375.177 435.856 404.121 479.272 433.065 537.932 421.333 566.875 377.917 595.819 334.501 654.479 322.769 697.894 351.713 741.31 380.657 753.042 439.316 724.098 482.732 666.21 569.564 548.892 593.028 462.06 535.14 375.228 477.252 351.765 359.933 409.653 273.102Z" fill="#29166F" fill-rule="evenodd"></path><path d="M842.015 80.9424 946.83 238.165M802.709 107.146 907.525 264.369M763.404 133.35 868.219 290.573" stroke="#000000" stroke-width="31.4722" stroke-miterlimit="8" fill-rule="evenodd"></path><path d="M265.527 465.263 370.342 622.486M226.222 491.467 331.037 648.69M186.916 517.671 291.731 674.894" stroke="#000000" stroke-width="31.4722" stroke-miterlimit="8" fill-rule="evenodd"></path><path d="M878.276 166.103 838.97 192.306M347.649 519.854 301.792 550.425M262.486 576.629 223.18 602.833" stroke="#FFFFFF" stroke-width="15.7361" stroke-miterlimit="8" fill="none" fill-rule="evenodd"></path></g></svg>